<svg width="32" height="32" viewBox="0 0 32 32" xmlns="http://www.w3.org/2000/svg">
  <defs>
    <linearGradient id="bg" x1="0%" y1="0%" x2="100%" y2="100%">
      <stop offset="0%" style="stop-color:#1a1a1a;stop-opacity:1" />
      <stop offset="100%" style="stop-color:#0d1117;stop-opacity:1" />
    </linearGradient>
    <linearGradient id="chart" x1="0%" y1="0%" x2="100%" y2="100%">
      <stop offset="0%" style="stop-color:#22c55e;stop-opacity:1" />
      <stop offset="100%" style="stop-color:#16a34a;stop-opacity:1" />
    </linearGradient>
  </defs>
  
  <!-- Background -->
  <rect width="32" height="32" rx="6" fill="url(#bg)"/>
  
  <!-- Chart Line -->
  <path d="M6 24 L8 20 L12 16 L16 12 L20 8 L24 6 L26 4" 
        stroke="url(#chart)" 
        stroke-width="2.5" 
        fill="none" 
        stroke-linecap="round" 
        stroke-linejoin="round"/>
  
  <!-- Chart Area Fill -->
  <path d="M6 24 L8 20 L12 16 L16 12 L20 8 L24 6 L26 4 L26 32 L6 32 Z" 
        fill="url(#chart)" 
        opacity="0.2"/>
  
  <!-- Data Points -->
  <circle cx="8" cy="20" r="1.5" fill="#22c55e"/>
  <circle cx="12" cy="16" r="1.5" fill="#22c55e"/>
  <circle cx="16" cy="12" r="1.5" fill="#22c55e"/>
  <circle cx="20" cy="8" r="1.5" fill="#22c55e"/>
  <circle cx="24" cy="6" r="1.5" fill="#22c55e"/>
  
  <!-- Trending Arrow -->
  <path d="M20 4 L24 6 L22 8" 
        stroke="#22c55e" 
        stroke-width="1.5" 
        fill="none" 
        stroke-linecap="round" 
        stroke-linejoin="round"/>
</svg>
