<svg width="16" height="16" viewBox="0 0 16 16" xmlns="http://www.w3.org/2000/svg">
  <defs>
    <linearGradient id="bg" x1="0%" y1="0%" x2="100%" y2="100%">
      <stop offset="0%" style="stop-color:#1a1a1a;stop-opacity:1" />
      <stop offset="100%" style="stop-color:#0d1117;stop-opacity:1" />
    </linearGradient>
    <linearGradient id="chart" x1="0%" y1="0%" x2="100%" y2="100%">
      <stop offset="0%" style="stop-color:#22c55e;stop-opacity:1" />
      <stop offset="100%" style="stop-color:#16a34a;stop-opacity:1" />
    </linearGradient>
  </defs>
  
  <!-- Background -->
  <rect width="16" height="16" rx="3" fill="url(#bg)"/>
  
  <!-- Chart Line -->
  <path d="M3 12 L4 10 L6 8 L8 6 L10 4 L12 3 L13 2" 
        stroke="url(#chart)" 
        stroke-width="1.5" 
        fill="none" 
        stroke-linecap="round" 
        stroke-linejoin="round"/>
  
  <!-- Chart Area Fill -->
  <path d="M3 12 L4 10 L6 8 L8 6 L10 4 L12 3 L13 2 L13 16 L3 16 Z" 
        fill="url(#chart)" 
        opacity="0.2"/>
  
  <!-- Data Points -->
  <circle cx="4" cy="10" r="0.8" fill="#22c55e"/>
  <circle cx="6" cy="8" r="0.8" fill="#22c55e"/>
  <circle cx="8" cy="6" r="0.8" fill="#22c55e"/>
  <circle cx="10" cy="4" r="0.8" fill="#22c55e"/>
  <circle cx="12" cy="3" r="0.8" fill="#22c55e"/>
  
  <!-- Trending Arrow -->
  <path d="M10 2 L12 3 L11 4" 
        stroke="#22c55e" 
        stroke-width="1" 
        fill="none" 
        stroke-linecap="round" 
        stroke-linejoin="round"/>
</svg>
